<svg id="visual" viewBox="0 0 960 540" width="960" height="540" xmlns="http://www.w3.org/2000/svg" xmlns:xlink="http://www.w3.org/1999/xlink" version="1.1"><rect x="0" y="0" width="960" height="540" fill="#111827"></rect><path d="M0 331L20 335.8C40 340.7 80 350.3 120 360.8C160 371.3 200 382.7 240 382.8C280 383 320 372 360 369.8C400 367.7 440 374.3 480 369.8C520 365.3 560 349.7 600 351.3C640 353 680 372 720 374.8C760 377.7 800 364.3 840 356.2C880 348 920 345 940 343.5L960 342L960 541L940 541C920 541 880 541 840 541C800 541 760 541 720 541C680 541 640 541 600 541C560 541 520 541 480 541C440 541 400 541 360 541C320 541 280 541 240 541C200 541 160 541 120 541C80 541 40 541 20 541L0 541Z" fill="#4facf7"></path><path d="M0 399L20 401.2C40 403.3 80 407.7 120 401.3C160 395 200 378 240 371.7C280 365.3 320 369.7 360 375.8C400 382 440 390 480 394.3C520 398.7 560 399.3 600 396.2C640 393 680 386 720 390C760 394 800 409 840 410.7C880 412.3 920 400.7 940 394.8L960 389L960 541L940 541C920 541 880 541 840 541C800 541 760 541 720 541C680 541 640 541 600 541C560 541 520 541 480 541C440 541 400 541 360 541C320 541 280 541 240 541C200 541 160 541 120 541C80 541 40 541 20 541L0 541Z" fill="#33a0fb"></path><path d="M0 401L20 402C40 403 80 405 120 405.5C160 406 200 405 240 410.8C280 416.7 320 429.3 360 432.3C400 435.3 440 428.7 480 421.3C520 414 560 406 600 409.2C640 412.3 680 426.7 720 428.2C760 429.7 800 418.3 840 418.2C880 418 920 429 940 434.5L960 440L960 541L940 541C920 541 880 541 840 541C800 541 760 541 720 541C680 541 640 541 600 541C560 541 520 541 480 541C440 541 400 541 360 541C320 541 280 541 240 541C200 541 160 541 120 541C80 541 40 541 20 541L0 541Z" fill="#1393fe"></path><path d="M0 439L20 441.3C40 443.7 80 448.3 120 451.3C160 454.3 200 455.7 240 456.3C280 457 320 457 360 459C400 461 440 465 480 460C520 455 560 441 600 434.7C640 428.3 680 429.7 720 429C760 428.3 800 425.7 840 424.3C880 423 920 423 940 423L960 423L960 541L940 541C920 541 880 541 840 541C800 541 760 541 720 541C680 541 640 541 600 541C560 541 520 541 480 541C440 541 400 541 360 541C320 541 280 541 240 541C200 541 160 541 120 541C80 541 40 541 20 541L0 541Z" fill="#0085ff"></path><path d="M0 478L20 474.8C40 471.7 80 465.3 120 465.5C160 465.7 200 472.3 240 476.8C280 481.3 320 483.7 360 482.7C400 481.7 440 477.3 480 477.5C520 477.7 560 482.3 600 484C640 485.7 680 484.3 720 482.8C760 481.3 800 479.7 840 475C880 470.3 920 462.7 940 458.8L960 455L960 541L940 541C920 541 880 541 840 541C800 541 760 541 720 541C680 541 640 541 600 541C560 541 520 541 480 541C440 541 400 541 360 541C320 541 280 541 240 541C200 541 160 541 120 541C80 541 40 541 20 541L0 541Z" fill="#0076ff"></path><path d="M0 488L20 490.3C40 492.7 80 497.3 120 499.3C160 501.3 200 500.7 240 498.7C280 496.7 320 493.3 360 491.5C400 489.7 440 489.3 480 490.7C520 492 560 495 600 495.3C640 495.7 680 493.3 720 495C760 496.7 800 502.3 840 504.5C880 506.7 920 505.3 940 504.7L960 504L960 541L940 541C920 541 880 541 840 541C800 541 760 541 720 541C680 541 640 541 600 541C560 541 520 541 480 541C440 541 400 541 360 541C320 541 280 541 240 541C200 541 160 541 120 541C80 541 40 541 20 541L0 541Z" fill="#0066ff"></path></svg>